<?xml version="1.0" standalone="no"?>
<!DOCTYPE svg PUBLIC "-//W3C//DTD SVG 20010904//EN"
 "http://www.w3.org/TR/2001/REC-SVG-20010904/DTD/svg10.dtd">
<svg version="1.0" xmlns="http://www.w3.org/2000/svg"
 width="256.000000pt" height="256.000000pt" viewBox="0 0 256.000000 256.000000"
 preserveAspectRatio="xMidYMid meet">
<metadata>
Created by potrace 1.14, written by Peter Selinger 2001-2017
</metadata>
<g transform="translate(0.000000,256.000000) scale(0.100000,-0.100000)"
fill="#000000" stroke="none">
<path d="M1199 2085 c-109 -16 -176 -37 -267 -87 -226 -123 -361 -322 -407
-598 -22 -132 -16 -252 19 -375 82 -292 252 -485 498 -563 86 -28 97 -30 226
-42 109 -10 117 -9 242 19 74 17 162 45 203 65 228 108 372 310 421 590 11 65
11 79 0 91 -17 17 -121 51 -198 64 -126 23 -344 4 -403 -34 l-24 -16 37 -34
c29 -27 34 -38 28 -57 -24 -77 -140 -158 -226 -158 -59 0 -141 38 -195 92
-129 127 -130 303 -3 422 125 117 277 110 510 -24 27 -16 53 -20 121 -20 98 0
142 12 183 49 46 42 66 96 66 181 0 69 -3 79 -34 125 -81 117 -162 185 -301
251 -148 70 -298 88 -496 59z"/>
</g>
</svg>
